<?xml version="1.0" encoding="UTF-8" standalone="no"?>
<!-- Created with Inkscape (http://www.inkscape.org/) -->

<svg
   width="64mm"
   height="64mm"
   viewBox="0 0 64 64"
   version="1.1"
   id="svg5"
   inkscape:version="1.1 (c68e22c387, 2021-05-23)"
   sodipodi:docname="logo.svg"
   inkscape:export-filename="F:\Dropbox (Personal)\Projects\web\reservoir\public\logo192.png"
   inkscape:export-xdpi="76.199997"
   inkscape:export-ydpi="76.199997"
   xmlns:inkscape="http://www.inkscape.org/namespaces/inkscape"
   xmlns:sodipodi="http://sodipodi.sourceforge.net/DTD/sodipodi-0.dtd"
   xmlns="http://www.w3.org/2000/svg"
   xmlns:svg="http://www.w3.org/2000/svg">
  <sodipodi:namedview
     id="namedview7"
     pagecolor="#ffffff"
     bordercolor="#666666"
     borderopacity="1.0"
     inkscape:pageshadow="2"
     inkscape:pageopacity="0.0"
     inkscape:pagecheckerboard="0"
     inkscape:document-units="mm"
     showgrid="false"
     fit-margin-top="0"
     fit-margin-left="0"
     fit-margin-right="0"
     fit-margin-bottom="0"
     inkscape:zoom="0.67081229"
     inkscape:cx="477.77896"
     inkscape:cy="184.10515"
     inkscape:window-width="1920"
     inkscape:window-height="1017"
     inkscape:window-x="-8"
     inkscape:window-y="-8"
     inkscape:window-maximized="1"
     inkscape:current-layer="layer1" />
  <defs
     id="defs2" />
  <g
     inkscape:label="Layer 1"
     inkscape:groupmode="layer"
     id="layer1"
     transform="translate(-132.92041,-144.03102)">
    <path
       style="fill:#fecc00;stroke-width:0.12418;stroke:none;stroke-opacity:1;fill-opacity:1"
       d="m 164.59321,204.19574 c -0.54816,-0.0431 -1.03559,-0.0874 -1.08314,-0.0986 -0.36895,-0.0864 -2.7111,-5.87653 -3.38303,-8.3633 -1.18707,-4.39325 -1.18077,-4.24642 -1.18059,-27.52096 l 1.7e-4,-22.07794 1.33249,-0.12574 c 0.73285,-0.0692 2.26702,-0.16872 3.40922,-0.22126 2.44635,-0.11256 4.62005,-0.063 7.12029,0.16222 l 1.55707,0.14027 v 23.0466 c 0,25.12009 0.0729,23.70722 -1.45378,28.19442 -0.54979,1.61599 -2.00841,5.14134 -2.49716,6.03538 -0.0889,0.16274 -0.14891,0.38232 -0.13308,0.48799 0.0207,0.13889 -0.13172,0.21477 -0.54975,0.27385 -0.90529,0.12791 -2.0528,0.15244 -3.13873,0.0671 z m 5.29671,-12.89968 -1.91106,-6.14305 h -2.25868 -2.65406 l -1.51567,6.14305 v 0.6213 h 4.16973 4.16974 z"
       id="path3284"
       sodipodi:nodetypes="sssscssscsssssssccccccccc" />
    <path
       style="fill:#fecc00;stroke-width:0.108156;stroke:none;stroke-opacity:1;fill-opacity:1"
       d="m 188.05755,204.2078 c -0.54816,-0.0327 -1.03559,-0.0663 -1.08314,-0.0747 -0.36895,-0.0655 -2.7111,-4.45779 -3.38303,-6.34419 -1.18707,-3.33261 -1.18077,-3.22123 -1.18059,-20.87671 l 1.7e-4,-16.74778 1.33249,-0.0954 c 0.73285,-0.0525 2.26702,-0.12798 3.40922,-0.16784 2.44635,-0.0854 4.62005,-0.0478 7.12029,0.12305 l 1.55707,0.10641 v 17.48257 c 0,19.05547 0.0729,17.98371 -1.45378,21.38758 -0.54979,1.22585 -2.00841,3.90009 -2.49716,4.57829 -0.0889,0.12345 -0.14891,0.29002 -0.13308,0.37018 0.0207,0.10535 -0.13172,0.16292 -0.54975,0.20774 -0.90529,0.097 -2.0528,0.11563 -3.13873,0.0509 z m 5.29671,-9.78537 -1.91106,-4.65996 h -2.25868 -2.65406 l -1.51566,4.65996 v 0.47129 h 4.16972 4.16974 z"
       id="path3284-0"
       sodipodi:nodetypes="sssscssscsssssssccccccccc" />
    <path
       style="fill:#fecc00;stroke-width:0.108156;stroke:none;stroke-opacity:1;fill-opacity:1"
       d="m 140.34207,204.2078 c -0.54816,-0.0327 -1.03559,-0.0663 -1.08313,-0.0747 -0.36894,-0.0655 -2.7111,-4.45779 -3.38303,-6.34419 -1.18706,-3.33261 -1.18077,-3.22123 -1.18059,-20.87671 l 1.7e-4,-16.74778 1.33249,-0.0954 c 0.73286,-0.0525 2.26703,-0.12798 3.40922,-0.16784 2.44636,-0.0854 4.62005,-0.0478 7.1203,0.12305 l 1.55707,0.10641 v 17.48257 c 0,19.05547 0.0729,17.98371 -1.45379,21.38758 -0.54979,1.22585 -2.0084,3.90009 -2.49715,4.57829 -0.0889,0.12345 -0.14892,0.29002 -0.13309,0.37018 0.0207,0.10535 -0.13172,0.16292 -0.54975,0.20774 -0.90529,0.097 -2.0528,0.11563 -3.13873,0.0509 z m 5.29672,-9.78537 -1.91105,-4.65996 h -2.25868 -2.65407 l -1.51566,4.65996 v 0.47129 h 4.16973 4.16973 z"
       id="path3284-0-7"
       sodipodi:nodetypes="sssscssscsssssssccccccccc" />
  </g>
</svg>
